<?xml version="1.0" encoding="iso-8859-1"?>
<!-- Generator: Adobe Illustrator 19.0.0, SVG Export Plug-In . SVG Version: 6.00 Build 0)  -->
<svg version="1.1" id="Warstwa_1" xmlns="http://www.w3.org/2000/svg" xmlns:xlink="http://www.w3.org/1999/xlink" x="0px" y="0px"
	 viewBox="0 0 369.371 418.872" style="enable-background:new 0 0 369.371 418.872;" xml:space="preserve">
<g>
	<path style="fill:#FFFFFF;" d="M366.769,0.02c2.083-0.171,2.879,0.741,2.519,2.625l-33.003,370.357
		c-0.107,2.683-1.29,4.462-3.93,5.018l-147.683,40.852l-147.347-40.78c-2.357-0.589-3.759-2.04-3.978-4.559L0.047,2.206
		c-0.126-1.92-0.156-1.967,2.042-2L366.769,0.02z"/>
	<path style="fill:#179AFF;" d="M184.725,213.73c-15.606-0.054-31.212-0.209-46.817-0.079c-3.144,0.026-4.003-0.825-4.24-3.932
		c-0.984-12.871-2.222-25.725-3.543-38.567c-0.311-3.027,0.493-3.845,3.573-3.823c17.014,0.117,34.03-0.001,51.045-0.038
		c19.463,0.02,38.926,0.036,58.39,0.07c1.615,0.003,2.929,0.072,3.122-2.236c1.17-14.028,2.434-28.049,3.777-42.061
		c0.241-2.509-0.757-3.049-2.995-3.032c-9.86,0.073-19.722,0.001-29.582,0.035c-10.879,0.038-21.757,0.133-32.636,0.204
		c-1.651-0.107-3.302-0.306-4.952-0.307c-34.195-0.018-68.39-0.05-102.584,0.049c-2.983,0.009-4.083-0.55-4.321-3.854
		c-0.917-12.759-2.147-25.499-3.513-38.219c-0.363-3.378,0.684-4.014,3.836-4.005c35.475,0.104,70.951,0.069,106.426,0.053
		c1.653-0.001,3.307-0.179,4.959-0.275c1.659,0.067,3.32,0.191,4.98,0.192c35.635,0.011,71.27,0.05,106.904-0.057
		c3.424-0.01,4.218,0.757,3.875,4.323c-2.346,24.351-4.394,48.731-6.555,73.101c-2.115,23.856-4.237,47.711-6.381,71.564
		c-2.454,27.3-5.028,54.59-7.292,81.906c-0.295,3.562-1.36,4.959-4.786,5.894c-30.247,8.258-60.436,16.728-90.642,25.135
		c-17.093-4.82-34.178-9.665-51.28-14.452c-13.17-3.686-26.342-7.373-39.559-10.884c-2.712-0.72-3.8-1.711-4.05-4.752
		c-1.771-21.55-3.784-43.08-5.842-64.606c-0.3-3.137,0.072-4.478,3.823-4.399c12.802,0.269,25.614,0.201,38.42,0.03
		c2.956-0.04,3.903,0.824,4.119,3.744c0.744,10.08,1.794,20.137,2.655,30.209c0.149,1.749,0.214,3.11,2.406,3.688
		c16.192,4.267,32.35,8.659,48.522,13c0.233,0.063,0.506-0.023,0.76-0.04c0.504-0.034,1.032,0.016,1.512-0.113
		c15.686-4.238,31.346-8.578,47.072-12.665c2.682-0.697,3.438-1.974,3.589-4.456c0.311-5.111,0.841-10.208,1.298-15.31
		c1.12-12.499,2.222-24.999,3.399-37.493c0.227-2.413-0.052-3.725-3.08-3.698C220.598,213.732,202.661,213.699,184.725,213.73z"/>
</g>
</svg>
