<?xml version="1.0" encoding="iso-8859-1"?>
<!-- Generator: Adobe Illustrator 19.0.0, SVG Export Plug-In . SVG Version: 6.00 Build 0)  -->
<svg version="1.1" id="Warstwa_1" xmlns="http://www.w3.org/2000/svg" xmlns:xlink="http://www.w3.org/1999/xlink" x="0px" y="0px"
	 viewBox="0 0 354.479 402" style="enable-background:new 0 0 354.479 402;" xml:space="preserve">
<g>
	<path style="fill: #FFFFFF" d="M0,0c118.16,0,236.319,0,354.479,0c-2.155,23.744-4.345,47.486-6.454,71.234c-1.836,20.662-3.526,41.336-5.378,61.997
		c-2.874,32.054-5.866,64.097-8.739,96.15c-1.852,20.661-3.533,41.337-5.377,61.998c-1.996,22.364-4.149,44.714-6.066,67.084
		c-0.226,2.638-1.174,3.624-3.604,4.286c-22.37,6.09-44.706,12.305-67.054,18.478c-18.225,5.034-36.464,10.015-54.671,15.11
		c-6.243,1.747-12.41,3.767-18.611,5.663c-1.07,0-2.141,0-3.211,0c-1.044-0.459-2.05-1.056-3.137-1.357
		c-15.753-4.367-31.525-8.665-47.277-13.037c-29.763-8.261-59.508-16.584-89.285-24.792c-2.4-0.662-3.43-1.627-3.651-4.26
		c-2.063-24.51-4.28-49.006-6.473-73.505c-3.118-34.832-6.265-69.662-9.377-104.494c-2.094-23.436-4.146-46.875-6.22-70.312
		C8.053,89.47,6.222,68.696,4.361,47.926C2.929,31.948,1.455,15.975,0,0z M231.417,208.112c0,1.17,0.057,1.918-0.008,2.655
		c-1.552,17.581-3.164,35.158-4.617,52.748c-0.169,2.048-1.266,2.397-2.761,2.803c-14.856,4.031-29.699,8.114-44.573,12.075
		c-1.482,0.395-3.245,0.435-4.72,0.044c-14.881-3.946-29.718-8.053-44.597-12.005c-1.906-0.506-2.528-1.41-2.689-3.281
		c-0.842-9.804-1.93-19.589-2.653-29.4c-0.204-2.765-1.013-3.607-3.791-3.576c-12.412,0.138-24.828,0.155-37.239-0.01
		c-3.222-0.043-3.935,0.966-3.637,4.064c1.865,19.376,3.622,38.763,5.256,58.16c0.641,7.613,0.456,7.624,7.791,9.662
		c25.025,6.954,50.083,13.794,75.049,20.953c5.97,1.712,11.487,1.803,17.474,0.025c15.571-4.625,31.289-8.753,46.941-13.107
		c10.914-3.036,21.814-6.123,32.724-9.176c1.585-0.444,2.855-0.833,3.023-3.018c0.73-9.49,1.705-18.962,2.551-28.443
		c2.721-30.473,5.434-60.946,8.125-91.421c0.408-4.625,0.683-9.262,1.04-14.168c-1.893,0-3.27,0-4.646,0
		c-51.045,0-102.091-0.024-153.136,0.061c-2.98,0.005-4.017-0.767-4.243-3.857c-0.938-12.8-2.184-25.577-3.298-38.365
		c-0.08-0.916-0.01-1.844-0.01-3.142c1.58,0,2.944,0,4.308,0c53.828-0.001,107.655-0.022,161.483,0.053
		c2.814,0.004,3.91-0.674,4.13-3.658c0.908-12.266,2.061-24.515,3.182-36.765c0.376-4.109,0.454-4.112-3.482-4.112
		c-71.592-0.002-143.184-0.002-214.776,0.006c-1.124,0-2.248,0.106-3.693,0.178c4.003,44.894,7.969,89.369,11.951,134.017
		C129.276,208.112,180.187,208.112,231.417,208.112z"/>
	<path style="fill:#179AFF;" d="M231.417,208.112c-51.23,0-102.14,0-153.544,0c-3.981-44.648-7.947-89.123-11.951-134.017
		c1.444-0.072,2.568-0.178,3.693-0.178c71.592-0.008,143.184-0.008,214.776-0.006c3.936,0,3.858,0.002,3.482,4.112
		c-1.121,12.25-2.274,24.499-3.182,36.765c-0.221,2.984-1.317,3.662-4.13,3.658c-53.828-0.075-107.655-0.054-161.483-0.053
		c-1.364,0-2.728,0-4.308,0c0,1.298-0.069,2.226,0.01,3.142c1.114,12.787,2.36,25.565,3.298,38.365
		c0.227,3.09,1.264,3.862,4.243,3.857c51.045-0.085,102.091-0.061,153.136-0.061c1.376,0,2.752,0,4.646,0
		c-0.357,4.906-0.631,9.543-1.04,14.168c-2.691,30.475-5.404,60.948-8.125,91.421c-0.847,9.482-1.821,18.953-2.551,28.443
		c-0.168,2.184-1.438,2.574-3.023,3.018c-10.91,3.053-21.81,6.14-32.724,9.176c-15.652,4.354-31.37,8.481-46.941,13.107
		c-5.987,1.778-11.504,1.687-17.474-0.025c-24.966-7.158-50.024-13.999-75.049-20.953c-7.335-2.038-7.15-2.049-7.791-9.662
		c-1.634-19.397-3.391-38.784-5.256-58.16c-0.298-3.097,0.414-4.106,3.637-4.064c12.411,0.165,24.827,0.148,37.239,0.01
		c2.778-0.031,3.587,0.811,3.791,3.576c0.723,9.812,1.811,19.596,2.653,29.4c0.161,1.871,0.783,2.775,2.689,3.281
		c14.879,3.951,29.717,8.059,44.597,12.005c1.475,0.391,3.238,0.351,4.72-0.044c14.875-3.961,29.717-8.045,44.573-12.075
		c1.496-0.406,2.592-0.755,2.761-2.803c1.453-17.59,3.065-35.166,4.617-52.748C231.474,210.03,231.417,209.282,231.417,208.112z"/>
</g>
</svg>
