<?xml version="1.0" encoding="iso-8859-1"?>
<!-- Generator: Adobe Illustrator 19.0.0, SVG Export Plug-In . SVG Version: 6.00 Build 0)  -->
<svg version="1.1" id="Warstwa_1" xmlns="http://www.w3.org/2000/svg" xmlns:xlink="http://www.w3.org/1999/xlink" x="0px" y="0px"
	 viewBox="0 0 551.275 528.527" style="enable-background:new 0 0 551.275 528.527;" xml:space="preserve">
<g>
	<path style="fill:#FFFFFF;" d="M0,221.923c1.299-3.587,1.061-7.394,1.509-11.095c3.675-30.372,13.403-58.581,30.128-84.249
		c7.246-11.12,16.133-21.023,24.222-31.519c5.215-6.766,10.564-13.427,16.28-19.911c-0.41,0.955-0.783,1.928-1.235,2.863
		c-12.324,25.527-19.128,52.469-20.718,80.75c-2.519,44.774,7.188,87.037,26.379,127.289c15.297,32.084,36.136,60.243,61.499,85.042
		c40.257,39.363,87.52,66.721,141.955,81.201c22.562,6.001,45.731,8.45,69.106,8.971c28.266,0.63,56.037-2.487,83.211-10.359
		c34.211-9.911,64.526-26.657,89.937-51.846c5.034-4.99,9.775-10.261,14.21-15.801c0.502-0.627,0.829-1.454,1.969-1.835
		c-1.164,3.863-2.919,7.275-4.698,10.635c-36.604,69.112-92.609,113.093-169.168,130.335c-13.486,3.037-27.175,4.797-40.976,5.65
		c-0.718,0.044-1.492-0.098-2.09,0.485c-13.811,0-27.622,0-41.433,0c-4.616-0.596-9.271-0.525-13.907-0.773
		c-15.784-0.845-31.303-3.089-46.406-7.98c-18.691-6.054-36.895-13.256-54.279-22.439c-20.411-10.781-39.443-23.613-57.223-38.351
		c-11.082-9.186-21.352-19.23-31.114-29.735c-16.594-17.856-30.841-37.493-42.633-58.881
		c-12.916-23.427-22.761-48.035-28.988-74.076c-2.817-11.78-4.825-23.647-5.071-35.803c-0.059-2.895,0.201-5.854-0.465-8.735
		C0,241.811,0,231.867,0,221.923z"/>
	<path style="fill:#FFFFFF;" d="M551.116,244.468c0.479,1.194-0.239,2.161-0.657,3.132
		c-22.268,51.751-60.329,85.755-114.523,101.337c-25.941,7.458-52.509,8.896-79.33,6.878c-7.895-0.594-15.744-1.543-23.586-2.61
		c-11.516-1.567-22.267-5.723-32.927-9.985c-32.473-12.985-60.487-32.513-84.29-58.142c-26.404-28.43-44.429-61.321-51.946-99.476
		c-8.062-40.917-3.4-80.134,18.534-116.31c8.826-14.558,19.429-27.956,29.156-41.928c0.18-0.259,0.491-0.427,0.838-0.719
		c0.317,1.216-0.443,1.899-0.831,2.67c-13.408,26.672-18.463,54.978-16.138,84.605c3.349,42.671,20.242,79.815,47.483,112.309
		c33.942,40.487,76.81,66.843,128.499,78.163c41.668,9.126,82.355,6.116,121.309-12.275c22.449-10.599,41.261-25.816,56.307-45.617
		c0.499-0.656,1.029-1.289,1.574-1.908C550.68,244.487,550.92,244.51,551.116,244.468z"/>
	<path style="fill:#FFFFFF;" d="M534.203,144.904c-3.419,7.749-7.891,14.773-13.11,21.314
		c-19.579,24.538-45.289,37.119-76.406,39.239c-15.083,1.028-30.069,0.074-44.663-3.638c-15.439-3.928-29.719-10.829-42.853-19.911
		c-27.321-18.894-47.168-43.543-56.142-75.843c-9.127-32.851-4.18-63.609,16.015-91.512c3.492-4.825,6.99-9.646,10.546-14.552
		c0.723,0.94,0.145,1.487-0.092,1.999c-11.458,24.74-12.231,50.23-3.259,75.551c18.763,52.95,56.456,84.574,111.353,95.709
		c16.531,3.353,33.217,4.058,49.912,0.728c18.995-3.788,34.943-12.757,47.403-27.71C533.31,145.795,533.77,145.361,534.203,144.904z
		"/>
</g>
</svg>
