<?xml version="1.0" encoding="iso-8859-1"?>
<!-- Generator: Adobe Illustrator 19.0.0, SVG Export Plug-In . SVG Version: 6.00 Build 0)  -->
<svg version="1.1" id="Warstwa_1" xmlns="http://www.w3.org/2000/svg" xmlns:xlink="http://www.w3.org/1999/xlink" x="0px" y="0px"
	 viewBox="0 0 225 225" style="enable-background:new 0 0 225 225;" xml:space="preserve">
<g>
	<path style="fill:#FFFFFF;" d="M1.041,225.959c0-74.931,0-149.903,0-224.917c74.931,0,149.903,0,224.917,0
		c0,74.931,0,149.903,0,224.917C151.028,225.959,76.055,225.959,1.041,225.959z M133.739,187.228
		c4.412,4.736,7.76,9.36,12.073,12.759c11.076,8.729,24.117,10.029,37.462,7.62c14.145-2.553,23.009-11.015,24.928-22.542
		c2.456-14.756-2.327-25.566-15.408-33.284c-5.84-3.445-12.241-5.928-18.333-8.96c-2.963-1.475-6.012-2.922-8.638-4.892
		c-3.188-2.392-4.286-5.875-3.044-9.801c1.253-3.961,4.175-5.798,8.211-6.152c5.017-0.44,9.17,1.086,12.288,5.153
		c0.871,1.136,1.809,2.222,2.892,3.546c5.586-3.589,10.849-6.971,16.308-10.479c-5.452-10.336-13.681-15.571-24.618-17.117
		c-16.203-2.29-30.751,5.371-35.297,18.787c-4.994,14.736,1.073,29.037,15.985,37.311c3.476,1.928,7.208,3.392,10.803,5.108
		c4.196,2.003,8.474,3.865,12.528,6.126c4.03,2.247,5.748,5.908,4.93,10.54c-0.767,4.342-3.917,6.635-7.77,7.546
		c-9.112,2.154-17.178,0.242-23.412-7.225c-1.241-1.487-2.389-3.051-3.648-4.666C146.104,180.026,140.668,183.192,133.739,187.228z
		 M60.461,188.656c0.116,0.921,0.085,1.27,0.209,1.551c0.333,0.758,0.679,1.521,1.113,2.224
		c8.032,13.003,20.165,16.932,34.695,15.901c15.122-1.073,26.146-10.717,26.67-25.84c0.864-24.949,0.502-49.939,0.716-74.911
		c0.025-2.903-1.331-3.736-3.992-3.649c-3.826,0.126-7.693,0.348-11.482-0.051c-5.037-0.53-6.533,1.194-6.47,6.33
		c0.274,22.313,0.13,44.632,0.077,66.949c-0.011,4.831-0.712,9.507-6.128,11.406c-5.676,1.99-11.244,0.08-14.994-4.953
		c-1.174-1.576-2.233-3.237-3.559-5.171C71.505,181.962,65.88,185.372,60.461,188.656z"/>
</g>
</svg>
