<?xml version="1.0" encoding="iso-8859-1"?>
<!-- Generator: Adobe Illustrator 19.0.0, SVG Export Plug-In . SVG Version: 6.00 Build 0)  -->
<svg version="1.1" id="Warstwa_1" xmlns="http://www.w3.org/2000/svg" xmlns:xlink="http://www.w3.org/1999/xlink" x="0px" y="0px"
	 viewBox="0 0 427 320" style="enable-background:new 0 0 427 320;" xml:space="preserve">
<g>
	<path style="fill:#FFFFFF;" d="M207,0c6.702,1.936,13.753,2.155,20.429,4.318c5.884,1.907,11.658,3.997,17.07,7.011
		c19.322,10.757,28.006,29.181,23.829,50.986c-5.689,29.698-23.503,50.971-48.65,65.894c-26.857,15.938-56.425,21.614-87.549,17.769
		c-11.476-1.418-21.207-6.622-28.976-15.317c-2.276-2.547-3.759-5.482-4.599-8.762c-0.354-1.381-0.292-2.718,1.126-3.491
		c1.211-0.66,2.309-0.105,3.16,0.757c14.724,14.93,33.043,15.002,51.774,12.007c28.82-4.607,53.972-16.685,73.96-38.415
		c6.714-7.299,11.954-15.575,15.177-25.046c6.341-18.637-0.606-32.26-19.409-38.085c-17.035-5.277-34.3-4.726-51.436-1.242
		C129.463,37.216,91.56,57.401,58.076,86.082c-9.558,8.187-17.364,17.976-22.086,29.879c-6.7,16.89-4.272,32.282,7.561,46.165
		c9.711,11.394,21.828,20.006,33.491,29.145c6.822,5.345,13.752,10.579,19.68,16.936c2.026,2.173,3.763,2.043,6.11,0.734
		c12.078-6.735,24.193-13.405,36.34-20.013c1.991-1.083,3.345-2.672,4.704-4.367c6.334-7.895,13.85-14.383,22.883-19.037
		c1.036-0.534,2.082-1.059,3.164-1.489c14.792-5.878,24.632,1.249,23.662,17.139c-0.091,1.495-0.338,2.98-0.46,4.474
		c-0.144,1.764,0.446,2.117,2.348,1.869c10.097-1.312,12.964,1.976,10.476,11.737c-2.839,11.137-5.752,22.255-8.548,33.403
		c-1.252,4.992-2.02,10.052-1.162,15.509c2.561-0.413,2.898-2.421,3.668-3.9c10.092-19.376,18.433-39.561,27.347-59.479
		c4.687-10.474,9.963-20.747,12.322-32.131c0.266-1.286,0.748-2.533,1.804-3.495c3.611-3.293,19.036-4.312,23.184-1.59
		c3.058,2.007,2.101,4.603,1.13,7.096c-3.969,10.194-5.171,20.593-2.901,31.377c0.974,4.628,2.93,8.75,5.632,13.368
		c6.025-8.756,10.632-17.728,15.543-26.511c5.629-10.067,10.454-20.475,12.769-31.864c0.858-4.223,3.509-6.245,7.558-6.742
		c4.61-0.566,9.18-1.764,13.89-0.717c5.664,1.259,6.851,2.868,5.038,8.333c-3.187,9.605-5.301,19.204-3.296,29.432
		c1.345,6.859,4.585,12.822,7.721,18.876c1.503,2.901,3.715,1.381,5.611,0.565c15.598-6.714,31.86-8.545,48.475-5.728
		c18.142,3.076,32.928,11.572,41.493,28.67c1.623,3.241,2.533,6.839,3.771,10.273c0,4,0,8,0,12
		c-0.992,11.75-7.496,19.147-18.301,23.122c-2.301,0.846-4.611,1.2-6.346-1.097c-1.218-1.613-1.308-3.392-0.201-5.13
		c0.544-0.854,1.439-1.376,2.204-2.013c15.098-12.552,14.465-28.095-1.669-39.653c-7.047-5.048-15.039-7.775-23.505-9.283
		c-11.962-2.13-23.849-2.053-35.642,1.107c-3.599,0.964-6.189,2.693-5.096,7.044c3.565,14.201-1.05,25.461-12.164,34.539
		c-8.55,6.983-17.746,12.5-29.132,12.708c-7.544,0.137-12.063-4.399-12.484-12.014c-0.545-9.862,3.693-18.145,9.161-25.861
		c3.363-4.746,6.993-9.338,11.29-13.313c2.28-2.109,2.768-4.513,1.449-7.217c-2.641-5.415-4.599-11.067-6.177-16.866
		c-0.215-0.791-0.389-1.785-1.267-2.025c-1.258-0.345-1.668,0.814-2.147,1.635c-5.616,9.64-10.972,19.432-17.07,28.79
		c-1.826,2.802-0.988,5.763-0.053,8.676c3.277,10.214,3.573,20.236-1.647,30.03c-2.423,4.547-5.93,8.186-9.947,11.053
		c-10.845,7.74-22.833,12.278-36.476,11.139c-8.831-0.737-12.876-8.276-8.104-15.714c6.042-9.415,14.059-17.302,20.89-26.117
		c0.714-0.921,1.395-1.889,2.204-2.713c5.029-5.119,5.44-10.394,1.691-16.649c-3.248-5.421-4.955-11.612-6.373-18.823
		c-3.461,7.16-5.994,13.715-8.882,20.097c-7.905,17.469-16.863,34.386-26.302,51.058c-2.841,5.019-6.984,8.95-11.367,12.513
		c-5.827,4.738-14.5,2.868-18.024-3.703c-2.629-4.902-4.199-10.134-3.77-15.499c-2.933,5.94-5.514,12.432-9.493,18.161
		c-4.206,6.057-9.549,10.161-17.527,9.404c-5.275-0.501-9.663-2.501-12.674-6.957c-8.312-12.302-11.676-25.9-10.767-40.689
		c0.429-6.986,1.65-13.839,3.16-21.364c-4.795,1.738-8.49,4.19-12.124,6.695c-2.612,1.801-2.498,4.415-1.756,7.193
		c3.141,11.763,3.492,23.543,1.244,35.594c-3.485,18.683-13.597,32.86-28.004,44.662C76.156,316.42,65.013,319.268,53,320
		c-5.667,0-11.333,0-17,0c-0.381-0.355-0.844-0.449-1.351-0.5c-13.858-1.394-22.234-10.294-23.036-24.5
		c-0.871-15.431,3.831-28.499,14.935-39.706c13.066-13.189,28.361-22.992,44.334-31.998c1.158-0.653,2.373-1.205,3.555-1.818
		c3.151-1.636,3.155-3.491,0.468-5.644c-5.59-4.477-11.57-8.417-17.468-12.452c-11.404-7.803-22.58-15.89-32.862-25.137
		c-8.342-7.503-15.416-16.087-20.911-25.893C1.185,147.928,1.421,142.736,0,138c0-5,0-10,0-15
		c1.795-21.209,14.214-36.571,28.155-51.077c21.693-22.571,48.055-38.25,76.061-51.515c9.797-4.64,20.027-8.193,30.035-12.299
		c12.981-5.326,26.572-6.972,40.394-7.621C175.771,0.436,176.985,0.86,178,0C187.667,0,197.333,0,207,0z"/>
	<path style="fill:#179AFF;" d="M96.059,243.089c0.027,24.105-17.212,46.525-39.7,52.212c-11.525,2.915-17.633-2.577-15.686-14.256
		c1.684-10.102,6.986-18.281,14.323-25.133c10.512-9.816,22.495-17.641,34.747-25.089c3.345-2.033,4.699-1.209,5.255,2.443
		C95.524,236.722,96.242,240.146,96.059,243.089z"/>
	<path style="fill:#179AFF;" d="M147.259,238.401c0.516-19.79,7.034-36.23,18.283-50.887c2.338-3.046,5.341-5.489,8.842-7.186
		c1.936-0.939,4.041-2.177,6.108-0.725c2.158,1.516,1.434,3.919,0.995,5.991c-2.664,12.578-7.121,24.594-11.804,36.515
		c-3.645,9.277-6.795,18.781-11.837,27.459c-0.666,1.147-1.348,2.316-2.211,3.312c-2.439,2.819-4.57,2.483-5.955-0.96
		C147.789,247.223,147.435,242.234,147.259,238.401z"/>
	<path style="fill:#179AFF;" d="M319.001,219.725c-0.223,9.364-4.919,15.88-12.996,20.184c-1.138,0.607-2.484,1.546-3.709,0.643
		c-1.499-1.105-0.69-2.768-0.265-4.126c2.462-7.858,6.406-14.886,12.093-20.876c0.973-1.025,1.832-2.918,3.469-2.299
		c1.519,0.575,1.257,2.532,1.394,3.992C319.064,218.064,319.001,218.898,319.001,219.725z"/>
	<path style="fill:#F9F9F9;" d="M260.402,232.755c0.997,8.436-9.185,20.519-19.457,22.618
		C247.723,247.494,253.951,240.254,260.402,232.755z"/>
</g>
</svg>
