<?xml version="1.0" encoding="iso-8859-1"?>
<!-- Generator: Adobe Illustrator 19.0.0, SVG Export Plug-In . SVG Version: 6.00 Build 0)  -->
<svg version="1.1" id="Warstwa_1" xmlns="http://www.w3.org/2000/svg" xmlns:xlink="http://www.w3.org/1999/xlink" x="0px" y="0px"
	 viewBox="0 0 430 430" style="enable-background:new 0 0 430 430;" xml:space="preserve">
<g id="XMLID_156_" style="opacity:0.8;">
	
		<radialGradient id="XMLID_100_" cx="216.5152" cy="229.3886" r="167.739" gradientTransform="matrix(1.0123 0 0 -1.0168 -3.1689 434.8159)" gradientUnits="userSpaceOnUse">
		<stop  offset="0" style="stop-color:#B3B3B3"/>
		<stop  offset="0.7513" style="stop-color:#FFFFFF"/>
		<stop  offset="0.7518" style="stop-color:#ECF2F4"/>
		<stop  offset="0.7531" style="stop-color:#C5D8DF"/>
		<stop  offset="0.7545" style="stop-color:#A2C1CC"/>
		<stop  offset="0.7561" style="stop-color:#85AEBC"/>
		<stop  offset="0.7578" style="stop-color:#6D9EAF"/>
		<stop  offset="0.7597" style="stop-color:#5B92A5"/>
		<stop  offset="0.762" style="stop-color:#4F899E"/>
		<stop  offset="0.7651" style="stop-color:#47849A"/>
		<stop  offset="0.7718" style="stop-color:#458399"/>
		<stop  offset="0.7726" style="stop-color:#458399"/>
		<stop  offset="0.8285" style="stop-color:#458399"/>
		<stop  offset="0.8309" style="stop-color:#4B869C;stop-opacity:0.9865"/>
		<stop  offset="0.843" style="stop-color:#6694A7;stop-opacity:0.9157"/>
		<stop  offset="0.8569" style="stop-color:#7C9FB0;stop-opacity:0.8344"/>
		<stop  offset="0.8732" style="stop-color:#8DA8B7;stop-opacity:0.7395"/>
		<stop  offset="0.8933" style="stop-color:#98AEBC;stop-opacity:0.6221"/>
		<stop  offset="0.9216" style="stop-color:#9FB2BF;stop-opacity:0.4573"/>
		<stop  offset="1" style="stop-color:#A1B3C0;stop-opacity:0"/>
	</radialGradient>
	<ellipse id="XMLID_173_" style="fill:url(#XMLID_100_);" cx="216.001" cy="201.576" rx="169.796" ry="170.555"/>
	
		<radialGradient id="XMLID_101_" cx="214.6492" cy="216.3186" r="211.608" gradientTransform="matrix(1.0123 0 0 -1.0168 -3.1689 434.8159)" gradientUnits="userSpaceOnUse">
		<stop  offset="0" style="stop-color:#B3B3B3;stop-opacity:0"/>
		<stop  offset="0.5858" style="stop-color:#B3B3B3;stop-opacity:1.549626e-009"/>
		<stop  offset="0.6822" style="stop-color:#B3B3B3;stop-opacity:1.804702e-009"/>
		<stop  offset="0.7249" style="stop-color:#829EA7;stop-opacity:0.1977"/>
		<stop  offset="0.7682" style="stop-color:#568A9D;stop-opacity:0.3982"/>
		<stop  offset="0.7903" style="stop-color:#458399;stop-opacity:0.5"/>
		<stop  offset="0.9494" style="stop-color:#458399;stop-opacity:0.5"/>
		<stop  offset="0.9756" style="stop-color:#458399;stop-opacity:0.5"/>
		<stop  offset="0.9788" style="stop-color:#47849A;stop-opacity:0.5"/>
		<stop  offset="0.98" style="stop-color:#4E899E;stop-opacity:0.5"/>
		<stop  offset="0.9808" style="stop-color:#5991A4;stop-opacity:0.5"/>
		<stop  offset="0.9815" style="stop-color:#6A9CAE;stop-opacity:0.5"/>
		<stop  offset="0.9821" style="stop-color:#80AABA;stop-opacity:0.5"/>
		<stop  offset="0.9826" style="stop-color:#9CBDC9;stop-opacity:0.5"/>
		<stop  offset="0.983" style="stop-color:#BBD1DA;stop-opacity:0.5"/>
		<stop  offset="0.9834" style="stop-color:#DAE6EB;stop-opacity:0.5"/>
	</radialGradient>
	<ellipse id="XMLID_172_" style="fill:url(#XMLID_101_);" cx="214.112" cy="214.866" rx="214.202" ry="215.161"/>
	<g id="XMLID_161_" style="opacity:0.9;">
		<path id="XMLID_169_" style="fill:#458399;stroke:#DAE6EB;stroke-width:5;stroke-miterlimit:10;" d="M36.484,332.09
			C3.684,282.254-9.501,214.725,13.743,142.84h56.169c9.018,0,17.288,1.869,24.807,5.6c7.52,3.732,13.974,8.621,19.375,14.659
			c5.394,6.042,9.639,12.885,12.733,20.522c3.094,7.644,4.645,15.373,4.645,23.189c0,8.355-1.46,16.353-4.38,23.991
			c-2.913,7.641-6.99,14.484-12.204,20.526c-5.22,6.042-11.545,10.84-18.974,14.394c-7.429,3.556-15.654,5.331-24.679,5.331H40.281
			v61.038L36.484,332.09L36.484,332.09z M40.281,232.935h28.302c5.129,0,9.555-2.22,13.27-6.664
			c3.715-4.438,5.576-10.927,5.576-19.458c0-4.438-0.575-8.26-1.725-11.46c-1.156-3.199-2.701-5.863-4.645-7.995
			c-1.951-2.135-4.16-3.686-6.634-4.666c-2.481-0.973-4.955-1.466-7.429-1.466H40.281V232.935z"/>
		
			<path id="XMLID_165_" style="opacity:0.9;fill:#458399;stroke:#DAE6EB;stroke-width:5;stroke-miterlimit:10;enable-background:new    ;" d="
			M285.024,235.164c0,9.063-1.854,17.239-5.568,24.523c-3.715,7.287-8.715,13.55-14.995,18.789
			c-6.279,5.244-13.663,9.289-22.159,12.128c-8.489,2.839-17.514,4.263-27.063,4.263c-9.381,0-18.27-1.463-26.668-4.397
			c-8.405-2.933-15.789-7.064-22.159-12.395c-6.37-5.331-11.409-11.771-15.124-19.325c-3.715-7.551-5.576-15.947-5.576-25.188
			c0-4.974,0.795-9.636,2.39-13.994c1.589-4.351,3.624-8.306,6.099-11.863c2.481-3.553,5.31-6.661,8.495-9.328
			c3.185-2.664,6.279-4.974,9.29-6.93c-5.84-3.199-10.75-7.904-14.729-14.127c-3.979-6.217-5.969-12.793-5.969-19.724
			c0-8.706,1.99-16.479,5.969-23.322c3.979-6.84,9.064-12.528,15.26-17.061c6.189-4.53,13.043-7.995,20.563-10.393
			c7.52-2.401,14.905-3.601,22.159-3.601c7.249,0,14.678,1.158,22.288,3.465c7.604,2.313,14.548,5.734,20.828,10.262
			c6.279,4.533,11.415,10.175,15.395,16.928c3.979,6.756,5.969,14.484,5.969,23.189c0,3.556-0.575,7.021-1.725,10.396
			c-1.15,3.378-2.655,6.622-4.51,9.728c-1.861,3.111-4.115,5.863-6.77,8.264c-2.649,2.398-5.394,4.397-8.224,5.996
			c3.185,1.956,6.37,4.358,9.555,7.197c3.185,2.846,6.053,6.091,8.624,9.731c2.558,3.644,4.594,7.687,6.099,12.125
			C284.274,224.947,285.024,229.833,285.024,235.164z M242.036,232.497c0-3.732-0.756-7.064-2.254-9.993
			c-1.505-2.933-3.495-5.373-5.969-7.333c-2.481-1.953-5.31-3.462-8.489-4.53c-3.185-1.068-6.55-1.599-10.084-1.599
			c-7.429,0-13.715,2.132-18.845,6.399c-5.129,4.263-7.694,10.039-7.694,17.323c0,3.56,0.749,6.756,2.254,9.598
			c1.505,2.842,3.495,5.288,5.975,7.33c2.474,2.044,5.304,3.644,8.489,4.799s6.544,1.733,10.084,1.733
			c3.534,0,6.938-0.578,10.214-1.733s6.105-2.8,8.495-4.931c2.384-2.131,4.283-4.666,5.704-7.595
			C241.332,239.029,242.036,235.874,242.036,232.497z M194.275,158.399c0,3.196,0.613,5.954,1.854,8.26
			c1.24,2.313,2.875,4.225,4.909,5.73c2.035,1.512,4.29,2.667,6.77,3.465c2.474,0.801,4.949,1.201,7.429,1.201
			c2.474,0,4.993-0.4,7.559-1.201c2.565-0.798,4.865-1.999,6.9-3.598c2.035-1.599,3.669-3.553,4.909-5.863
			c1.234-2.307,1.861-4.974,1.861-7.995c0-5.152-2.08-9.374-6.241-12.664c-4.154-3.283-9.154-4.928-14.989-4.928
			c-5.84,0-10.795,1.645-14.859,4.928C196.303,149.026,194.275,153.247,194.275,158.399z"/>
		
			<path id="XMLID_162_" style="opacity:0.9;fill:#458399;stroke:#DAE6EB;stroke-width:5;stroke-miterlimit:10;enable-background:new    ;" d="
			M298.505,221.831c0-9.238,1.77-17.901,5.31-25.989c3.534-8.082,8.399-15.1,14.594-21.058c6.189-5.95,13.535-10.662,22.024-14.127
			c8.495-3.465,17.688-5.198,27.598-5.198c10.964,0,20.783,2.048,29.453,6.132c8.67,4.089,16.232,9.782,22.024,17.592
			c4.772,6.434,5.544,9.435,5.544,9.435c10.232,53.21-7.138,109.902-43.657,157.93c0,0-6.115,2.424-17.607,2.424
			c-11.68,0-22.515-2.398-32.509-7.197c-9.994-4.795-18.8-11.726-26.404-20.788l23.884-27.19
			c4.419,5.691,9.723,10.129,15.919,13.329c6.195,3.199,12.74,4.795,19.64,4.795c10.433,0,18.71-3.732,24.807-11.194
			c6.105-7.462,9.329-18.034,9.69-31.72c-3.54,4.799-8.231,8.53-14.064,11.197c-5.84,2.664-12.649,3.997-20.435,3.997
			c-9.381,0-18.089-1.599-26.139-4.799c-8.05-3.199-14.995-7.595-20.828-13.193c-5.84-5.597-10.439-12.171-13.799-19.724
			C300.186,238.933,298.505,230.717,298.505,221.831z M368.031,191.445c-3.895,0-7.61,0.798-11.144,2.398
			c-3.54,1.599-6.634,3.776-9.29,6.532s-4.774,5.996-6.37,9.728c-1.589,3.732-2.384,7.641-2.384,11.73s0.749,7.862,2.254,11.327
			c1.499,3.465,3.579,6.489,6.235,9.063c2.655,2.58,5.75,4.623,9.29,6.132c3.534,1.512,7.339,2.264,11.409,2.264
			c3.889,0,7.604-0.752,11.144-2.264c3.54-1.509,6.634-3.553,9.29-6.132c2.649-2.574,4.774-5.597,6.363-9.063
			c1.595-3.465,2.39-7.239,2.39-11.327s-0.795-7.998-2.39-11.73c-1.589-3.732-3.715-6.973-6.363-9.728
			c-2.655-2.754-5.75-4.931-9.29-6.532C375.635,192.243,371.921,191.445,368.031,191.445z"/>
	</g>
	
		<radialGradient id="XMLID_102_" cx="241.4122" cy="216.3186" r="185.467" gradientTransform="matrix(1.0123 0 0 -1.0168 -3.1689 434.8159)" gradientUnits="userSpaceOnUse">
		<stop  offset="0" style="stop-color:#29ABE2;stop-opacity:0"/>
		<stop  offset="0.4894" style="stop-color:#2BACE2;stop-opacity:0.0388"/>
		<stop  offset="0.6657" style="stop-color:#32AEE3;stop-opacity:0.0528"/>
		<stop  offset="0.7914" style="stop-color:#3DB3E5;stop-opacity:0.0627"/>
		<stop  offset="0.8923" style="stop-color:#4EBAE7;stop-opacity:0.0707"/>
		<stop  offset="0.9754" style="stop-color:#63C2EA;stop-opacity:0.0773"/>
		<stop  offset="0.9773" style="stop-color:#6AC5EB;stop-opacity:0.1415"/>
		<stop  offset="0.9801" style="stop-color:#7DCCEE;stop-opacity:0.2347"/>
		<stop  offset="0.9833" style="stop-color:#9DD9F2;stop-opacity:0.3455"/>
		<stop  offset="0.987" style="stop-color:#C9EAF8;stop-opacity:0.47"/>
		<stop  offset="0.9908" style="stop-color:#FFFFFF;stop-opacity:0.6"/>
	</radialGradient>
	
		<ellipse id="XMLID_160_" style="opacity:0.5;fill:url(#XMLID_102_);enable-background:new    ;" cx="241.203" cy="214.866" rx="187.741" ry="188.581"/>
	
		<radialGradient id="XMLID_103_" cx="265.6881" cy="216.3186" r="160.931" gradientTransform="matrix(1.0123 0 0 -1.0168 -3.1689 434.8159)" gradientUnits="userSpaceOnUse">
		<stop  offset="0" style="stop-color:#29ABE2;stop-opacity:0"/>
		<stop  offset="0.4946" style="stop-color:#2BACE2;stop-opacity:0.0388"/>
		<stop  offset="0.6727" style="stop-color:#32AEE3;stop-opacity:0.0528"/>
		<stop  offset="0.7997" style="stop-color:#3DB3E5;stop-opacity:0.0627"/>
		<stop  offset="0.9017" style="stop-color:#4EBAE7;stop-opacity:0.0707"/>
		<stop  offset="0.9858" style="stop-color:#63C2EA;stop-opacity:0.0773"/>
		<stop  offset="0.9864" style="stop-color:#6AC5EB;stop-opacity:0.1538"/>
		<stop  offset="0.9873" style="stop-color:#7DCCEE;stop-opacity:0.2648"/>
		<stop  offset="0.9883" style="stop-color:#9DD9F2;stop-opacity:0.3969"/>
		<stop  offset="0.9895" style="stop-color:#C9EAF8;stop-opacity:0.5451"/>
		<stop  offset="0.9908" style="stop-color:#FFFFFF;stop-opacity:0.7"/>
	</radialGradient>
	
		<ellipse id="XMLID_159_" style="opacity:0.5;fill:url(#XMLID_103_);enable-background:new    ;" cx="265.777" cy="214.866" rx="162.904" ry="163.633"/>
	
		<radialGradient id="XMLID_104_" cx="312.5982" cy="216.3186" r="113.778" gradientTransform="matrix(1.0123 0 0 -1.0168 -3.1689 434.8159)" gradientUnits="userSpaceOnUse">
		<stop  offset="0" style="stop-color:#29ABE2;stop-opacity:0"/>
		<stop  offset="0.4894" style="stop-color:#2BACE2;stop-opacity:0.0388"/>
		<stop  offset="0.6657" style="stop-color:#32AEE3;stop-opacity:0.0528"/>
		<stop  offset="0.7914" style="stop-color:#3DB3E5;stop-opacity:0.0627"/>
		<stop  offset="0.8923" style="stop-color:#4EBAE7;stop-opacity:0.0707"/>
		<stop  offset="0.9754" style="stop-color:#63C2EA;stop-opacity:0.0773"/>
		<stop  offset="0.9773" style="stop-color:#6AC5EB;stop-opacity:0.1784"/>
		<stop  offset="0.9801" style="stop-color:#7DCCEE;stop-opacity:0.325"/>
		<stop  offset="0.9833" style="stop-color:#9DD9F2;stop-opacity:0.4995"/>
		<stop  offset="0.987" style="stop-color:#C9EAF8;stop-opacity:0.6953"/>
		<stop  offset="0.9908" style="stop-color:#FFFFFF;stop-opacity:0.9"/>
	</radialGradient>
	
		<ellipse id="XMLID_158_" style="opacity:0.5;fill:url(#XMLID_104_);enable-background:new    ;" cx="313.262" cy="214.866" rx="115.173" ry="115.688"/>
	
		<radialGradient id="XMLID_105_" cx="350.6471" cy="216.3186" r="75.973" gradientTransform="matrix(1.0123 0 0 -1.0168 -3.1689 434.8159)" gradientUnits="userSpaceOnUse">
		<stop  offset="0" style="stop-color:#29ABE2;stop-opacity:0"/>
		<stop  offset="0.4894" style="stop-color:#2BACE2;stop-opacity:0.0388"/>
		<stop  offset="0.6657" style="stop-color:#32AEE3;stop-opacity:0.0528"/>
		<stop  offset="0.7914" style="stop-color:#3DB3E5;stop-opacity:0.0627"/>
		<stop  offset="0.8923" style="stop-color:#4EBAE7;stop-opacity:0.0707"/>
		<stop  offset="0.9754" style="stop-color:#63C2EA;stop-opacity:0.0773"/>
		<stop  offset="0.9773" style="stop-color:#6AC5EB;stop-opacity:0.1784"/>
		<stop  offset="0.9801" style="stop-color:#7DCCEE;stop-opacity:0.325"/>
		<stop  offset="0.9833" style="stop-color:#9DD9F2;stop-opacity:0.4995"/>
		<stop  offset="0.987" style="stop-color:#C9EAF8;stop-opacity:0.6953"/>
		<stop  offset="0.9908" style="stop-color:#FFFFFF;stop-opacity:0.9"/>
	</radialGradient>
	
		<ellipse id="XMLID_157_" style="opacity:0.5;fill:url(#XMLID_105_);enable-background:new    ;" cx="351.777" cy="214.866" rx="76.905" ry="77.249"/>
</g>
</svg>
